<svg xmlns="http://www.w3.org/2000/svg" width="323.73" height="353.014" viewBox="0 0 323.73 353.014">
  <g id="Group_1" data-name="Group 1" transform="translate(-936 -388)">
    <path id="Subtraction_1" data-name="Subtraction 1" d="M290.9,353.014h0c-.13-.007-13.2-.707-33.21-3.059-11.764-1.383-23.6-3.059-35.169-4.982-14.467-2.4-28.566-5.2-41.906-8.311-33.957-7.922-63.264-17.914-87.106-29.7a200.679,200.679,0,0,1-36.742-22.929,132.132,132.132,0,0,1-14.818-13.822A102.586,102.586,0,0,1,30.2,254.69,178.222,178.222,0,0,1,14,225.4,170.473,170.473,0,0,1,3.981,194.716,164.943,164.943,0,0,1,.065,163.48a160.475,160.475,0,0,1,2.114-30.95A156.914,156.914,0,0,1,10.247,102.7,155.141,155.141,0,0,1,24.193,74.842,156.914,156.914,0,0,1,43.942,49.783,164.529,164.529,0,0,1,69.418,28.366,161.525,161.525,0,0,1,160.755,0a163.226,163.226,0,0,1,39.133,4.777,165.662,165.662,0,0,1,70.217,37,170.5,170.5,0,0,1,27.6,31.408,113,113,0,0,1,10.19,17.541,141.56,141.56,0,0,1,7.4,19.568,206.826,206.826,0,0,1,7.625,43.474c2.019,26.834.249,57.82-5.26,92.1-2.164,13.467-4.918,27.479-8.185,41.649-2.613,11.336-5.559,22.8-8.756,34.066-5.421,19.112-9.781,31.316-9.824,31.437ZM161.5,13C80.168,13,14,79.168,14,160.5S80.168,308,161.5,308,309,241.832,309,160.5,242.831,13,161.5,13Z" transform="translate(936 388)"/>
  </g>
</svg>
