<svg xmlns="http://www.w3.org/2000/svg" width="323.281" height="322.252" viewBox="0 0 323.281 322.252">
  <g id="Group_1" data-name="Group 1" transform="translate(-935.999 -388)">
    <path id="Subtraction_1" data-name="Subtraction 1" d="M161.5,322.251s-44.149-3.5-67.991-15.289a200.681,200.681,0,0,1-36.742-22.929,132.129,132.129,0,0,1-14.818-13.822A102.588,102.588,0,0,1,30.2,254.69,178.222,178.222,0,0,1,14,225.4,170.472,170.472,0,0,1,3.981,194.716,164.941,164.941,0,0,1,.065,163.48a160.472,160.472,0,0,1,2.114-30.95,156.915,156.915,0,0,1,8.068-29.83A155.142,155.142,0,0,1,24.193,74.842,156.914,156.914,0,0,1,43.942,49.783,164.529,164.529,0,0,1,69.418,28.366,161.525,161.525,0,0,1,160.755,0a163.226,163.226,0,0,1,39.133,4.777,165.662,165.662,0,0,1,70.217,37,170.5,170.5,0,0,1,27.6,31.408A113,113,0,0,1,307.9,90.726a141.564,141.564,0,0,1,7.4,19.568,206.826,206.826,0,0,1,7.625,43.474c2.019,26.834-4.336,54.255-22.154,88.31-6.5,12.43-12.351,18.222-17.027,24.811-4.708,6.635-9.439,11.733-17.36,18.524-4.646,3.984-11.453,8.372-19.833,13.846C215.862,319.3,161.5,322.251,161.5,322.251ZM161.5,13C80.168,13,14,79.168,14,160.5S80.168,308,161.5,308,309,241.832,309,160.5,242.831,13,161.5,13Z" transform="translate(936 388)"/>
  </g>
</svg>
